HIERARCHY
ROOT Hips
{
	OFFSET 0.000000 0.000000 0.000000
	CHANNELS 6 Xposition Yposition Zposition Zrotation Yrotation Xrotation 
	JOINT LHipJoint
	{
		OFFSET 0.000000 0.000000 0.000000
		CHANNELS 3 Zrotation Yrotation Xrotation
		JOINT LeftUpLeg
		{
			OFFSET 1.363060 -1.794630 0.839290
			CHANNELS 3 Zrotation Yrotation Xrotation
			JOINT LeftLeg
			{
				OFFSET 2.448110 -6.726130 0.000000
				CHANNELS 3 Zrotation Yrotation Xrotation
				JOINT LeftFoot
				{
					OFFSET 2.562200 -7.039590 0.000000
					CHANNELS 3 Zrotation Yrotation Xrotation
					JOINT LeftToeBase
					{
						OFFSET 0.157640 -0.433110 2.322550
						CHANNELS 3 Zrotation Yrotation Xrotation
						End Site
						{
							OFFSET 0.000000 0.000000 0.000000
						}
					}
				}
			}
		}
	}
	JOINT RHipJoint
	{
		OFFSET 0.000000 0.000000 0.000000
		CHANNELS 3 Zrotation Yrotation Xrotation
		JOINT RightUpLeg
		{
			OFFSET -1.305520 -1.794630 0.839290
			CHANNELS 3 Zrotation Yrotation Xrotation
			JOINT RightLeg
			{
				OFFSET -2.542530 -6.985550 0.000000
				CHANNELS 3 Zrotation Yrotation Xrotation
				JOINT RightFoot
				{
					OFFSET -2.568260 -7.056230 0.000000
					CHANNELS 3 Zrotation Yrotation Xrotation
					JOINT RightToeBase
					{
						OFFSET -0.164730 -0.452590 2.363150
						CHANNELS 3 Zrotation Yrotation Xrotation
						End Site
						{
							OFFSET 0.000000 0.000000 0.000000
						}
					}
				}
			}
		}
	}
	JOINT LowerBack
	{
		OFFSET 0.000000 0.000000 0.000000
		CHANNELS 3 Zrotation Yrotation Xrotation
		JOINT Spine
		{
			OFFSET 0.028270 2.035590 -0.193380
			CHANNELS 3 Zrotation Yrotation Xrotation
			JOINT Spine1
			{
				OFFSET 0.056720 2.048850 -0.042750
				CHANNELS 3 Zrotation Yrotation Xrotation
				JOINT Neck
				{
					OFFSET 0.000000 0.000000 0.000000
					CHANNELS 3 Zrotation Yrotation Xrotation
					JOINT Neck1
					{
						OFFSET -0.054170 1.746240 0.172020
						CHANNELS 3 Zrotation Yrotation Xrotation
						JOINT Head
						{
							OFFSET 0.104070 1.761360 -0.123970
							CHANNELS 3 Zrotation Yrotation Xrotation
							End Site
							{
								OFFSET 0.000000 0.000000 0.000000
							}
						}
					}
				}
				JOINT LeftShoulder
				{
					OFFSET 0.000000 0.000000 0.000000
					CHANNELS 3 Zrotation Yrotation Xrotation
					JOINT LeftArm
					{
						OFFSET 3.362410 1.200890 -0.311210
						CHANNELS 3 Zrotation Yrotation Xrotation
						JOINT LeftForeArm
						{
							OFFSET 4.983000 -0.000000 -0.000000
							CHANNELS 3 Zrotation Yrotation Xrotation
							JOINT LeftHand
							{
								OFFSET 3.483560 -0.000000 -0.000000
								CHANNELS 3 Zrotation Yrotation Xrotation
								JOINT LeftFingerBase
								{
									OFFSET 0.000000 0.000000 0.000000
									CHANNELS 3 Zrotation Yrotation Xrotation
									JOINT LeftHandIndex1
									{
										OFFSET 0.715260 -0.000000 -0.000000
										CHANNELS 3 Zrotation Yrotation Xrotation
										End Site
										{
											OFFSET 0.000000 0.000000 0.000000
										}
									}
								}
								JOINT LThumb
								{
									OFFSET 0.000000 0.000000 0.000000
									CHANNELS 3 Zrotation Yrotation Xrotation
									End Site
									{
										OFFSET 0.000000 0.000000 0.000000
									}
								}
							}
						}
					}
				}
				JOINT RightShoulder
				{
					OFFSET 0.000000 0.000000 0.000000
					CHANNELS 3 Zrotation Yrotation Xrotation
					JOINT RightArm
					{
						OFFSET -3.136600 1.374050 -0.404650
						CHANNELS 3 Zrotation Yrotation Xrotation
						JOINT RightForeArm
						{
							OFFSET -5.241900 -0.000000 -0.000000
							CHANNELS 3 Zrotation Yrotation Xrotation
							JOINT RightHand
							{
								OFFSET -3.444170 -0.000000 -0.000000
								CHANNELS 3 Zrotation Yrotation Xrotation
								JOINT RightFingerBase
								{
									OFFSET 0.000000 0.000000 0.000000
									CHANNELS 3 Zrotation Yrotation Xrotation
									JOINT RightHandIndex1
									{
										OFFSET -0.622530 -0.000000 -0.000000
										CHANNELS 3 Zrotation Yrotation Xrotation
										End Site
										{
											OFFSET 0.000000 0.000000 0.000000
										}
									}
								}
								JOINT RThumb
								{
									OFFSET 0.000000 0.000000 0.000000
									CHANNELS 3 Zrotation Yrotation Xrotation
									End Site
									{
										OFFSET 0.000000 0.000000 0.000000
									}
								}
							}
						}
					}
				}
			}
		}
	}
}
MOTION
Frames: 6
Frame Time: 0.008333
4.929259 16.900804 3.523469 -82.107207 -89.627673 82.005787 -10.275426 1.449656 1.449855 -8.756518 16.530145 -25.567433 -2.205135 -0.186226 12.205474 0.697759 5.948931 4.468612 1.409600 -0.000001 -34.298000 11.861970 -3.011480 -1.851826 -6.906174 -24.312189 -9.968698 -0.244853 -3.118086 47.333909 -0.481997 6.269845 17.549416 2.873200 -0.000000 -103.875000 -2.740677 -0.678975 -2.229372 -0.625487 -0.513326 -2.540014 -3.046924 -0.602077 3.542336 7.350507 -16.297355 -11.504807 -0.346889 0.035712 -1.009525 0.000000 0.000000 0.000000 -5.432596 30.931189 1.669687 -77.028109 20.767470 -9.519946 -4.267408 -28.179414 -0.034760 -7.179651 13.764469 -0.861249 -0.102301 -0.083404 -0.000000 0.000000 0.000000 0.000000 0.000000 0.000000 0.000000 5.211668 -10.887209 0.410119 21.118230 16.996081 -5.453097 0.181036 58.555340 0.007065 2.309214 4.250250 0.093951 -0.060495 -0.284949 0.000000 0.000000 0.000000 0.000000 0.000000 0.000000 0.000000 
4.825812 16.866278 3.544773 -86.473112 -89.783668 86.422752 -10.105461 1.561870 1.422612 -9.182802 16.764213 -26.461475 -2.221605 -0.049499 14.198671 0.685412 5.662879 3.995832 1.291900 -0.000000 -33.222000 12.074225 -2.778515 -1.840699 -7.443265 -24.747056 -11.459020 -0.423523 -3.195403 49.866276 -0.655816 5.937736 19.297867 2.998400 0.000001 -102.447000 -3.090056 -0.779333 -2.273751 -0.706875 -0.593382 -2.555685 -3.104418 -0.681665 3.516494 7.560687 -16.296999 -11.510021 -0.382108 0.032865 -1.009395 0.000000 0.000000 0.000000 -5.031744 30.689181 1.674099 -76.512170 20.422996 -9.160888 -4.268399 -28.405676 -0.034436 -7.072135 13.594719 -0.837328 -0.104191 -0.080968 -0.000000 0.000000 0.000000 0.000000 0.000000 0.000000 0.000000 5.502839 -10.891684 0.348055 21.079650 17.028183 -6.121506 0.146146 59.760576 0.007250 2.383071 4.281682 0.097837 -0.065627 -0.291330 0.000000 0.000000 0.000000 0.000000 0.000000 0.000000 0.000000 
4.724911 16.834279 3.565115 -88.948619 -89.924967 88.981923 -9.967773 1.645592 1.418900 -9.541456 16.846719 -27.328483 -2.224543 0.074578 16.182149 0.692211 5.498096 3.261509 1.177400 0.000001 -32.382000 12.231452 -2.547499 -1.827463 -7.825794 -25.099391 -12.972483 -0.581466 -3.274179 52.308216 -0.847578 5.161728 20.824319 2.881700 0.000001 -100.426000 -3.413386 -0.883350 -2.336408 -0.782877 -0.679125 -2.575459 -3.161284 -0.767253 3.486944 7.755187 -16.284952 -11.512677 -0.419694 0.029761 -1.008524 0.000000 0.000000 0.000000 -4.630663 30.407738 1.682305 -75.945751 20.008197 -8.864040 -4.265943 -28.591888 -0.034054 -6.866681 13.438187 -0.802703 -0.106639 -0.077927 -0.000000 0.000000 0.000000 0.000000 0.000000 0.000000 0.000000 5.770859 -10.884835 0.277747 21.129954 17.015591 -6.798074 0.113179 61.016937 0.007160 2.381424 4.320190 0.098925 -0.069574 -0.298231 0.000000 0.000000 0.000000 0.000000 0.000000 0.000000 0.000000 
4.627010 16.805194 3.584905 89.087161 -89.971301 -88.951154 -9.852829 1.707023 1.437940 -9.806680 16.767766 -28.116423 -2.212987 0.185152 18.093003 0.720932 5.479172 2.326606 1.072900 0.000000 -31.840400 12.347725 -2.316612 -1.819624 -8.050937 -25.376306 -14.476399 -0.722173 -3.353770 54.626758 -1.052323 3.906820 22.016126 2.471500 0.000000 -97.978100 -3.683949 -0.982904 -2.406008 -0.848783 -0.763893 -2.596941 -3.218915 -0.851809 3.454826 7.938527 -16.280985 -11.516328 -0.458597 0.026558 -1.007961 0.000000 0.000000 0.000000 -4.228312 30.092136 1.693537 -75.342520 19.523383 -8.640177 -4.258712 -28.753317 -0.033675 -6.561421 13.318268 -0.758878 -0.109594 -0.074387 -0.000000 0.000000 0.000000 0.000000 0.000000 0.000000 0.000000 6.024276 -10.884034 0.201656 21.242824 16.978781 -7.459990 0.082156 62.313951 0.006702 2.289495 4.373100 0.096514 -0.072118 -0.305722 0.000000 0.000000 0.000000 0.000000 0.000000 0.000000 0.000000 
4.532342 16.779334 3.604738 86.913122 -89.919296 -86.668286 -9.763070 1.749874 1.474209 -9.965868 16.562444 -28.807582 -2.189252 0.284254 19.903880 0.768939 5.581203 1.248520 0.972200 0.000000 -31.564600 12.424823 -2.088340 -1.822967 -8.116548 -25.591851 -15.941395 -0.849526 -3.432346 56.790421 -1.267141 2.172891 22.785462 1.753300 -0.000000 -95.194300 -3.880833 -1.071958 -2.470927 -0.900332 -0.842724 -2.619271 -3.276128 -0.930185 3.415864 8.099862 -16.264016 -11.516461 -0.497167 0.023325 -1.006509 0.000000 0.000000 0.000000 -3.831106 29.734476 1.708917 -74.711455 18.985613 -8.485971 -4.244410 -28.919168 -0.033303 -6.149085 13.234363 -0.705248 -0.112983 -0.070352 -0.000000 0.000000 0.000000 0.000000 0.000000 0.000000 0.000000 6.233714 -10.864059 0.122411 21.454049 16.866247 -8.136257 0.054956 63.675013 0.006096 2.161575 4.418348 0.092404 -0.073960 -0.313472 0.000000 0.000000 0.000000 0.000000 0.000000 0.000000 0.000000 
4.440848 16.757151 3.624555 84.679508 -89.912342 -84.328195 -9.698921 1.775807 1.522483 -10.021702 16.248168 -29.356103 -2.154541 0.368912 21.541705 0.835334 5.806461 0.112742 0.877300 -0.000000 -31.590300 12.467774 -1.867822 -1.838592 -8.044355 -25.742088 -17.341128 -0.965567 -3.510587 58.764443 -1.489512 0.016068 23.064320 0.765000 0.000000 -92.294400 -4.014606 -1.148585 -2.523729 -0.940065 -0.912918 -2.639540 -3.334962 -0.999402 3.375109 8.257323 -16.274889 -11.521197 -0.535137 0.020241 -1.006482 0.000000 0.000000 0.000000 -3.433079 29.351894 1.725809 -74.059373 18.394068 -8.401121 -4.222600 -29.114834 -0.033021 -5.642870 13.204793 -0.643918 -0.116720 -0.065999 -0.000000 0.000000 0.000000 0.000000 0.000000 0.000000 0.000000 6.437401 -10.867305 0.042520 21.700594 16.741990 -8.773709 0.030804 65.066675 0.005117 1.955870 4.481522 0.085198 -0.074502 -0.321690 0.000000 0.000000 0.000000 0.000000 0.000000 0.000000 0.000000 
